<mxfile host="app.diagrams.net" modified="2021-04-16T09:12:57.134Z" agent="5.0 (Macintosh; Intel Mac OS X 10_15_7) AppleWebKit/605.1.15 (KHTML, like Gecko) Version/14.1 Safari/605.1.15" etag="FDO44NhH3236CfDeKen9" version="14.6.1" type="github">
  <diagram id="C5RBs43oDa-KdzZeNtuy" name="Page-1">
    <mxGraphModel dx="2809" dy="718" grid="1" gridSize="10" guides="1" tooltips="1" connect="1" arrows="1" fold="1" page="1" pageScale="1" pageWidth="827" pageHeight="1169" math="0" shadow="0">
      <root>
        <mxCell id="WIyWlLk6GJQsqaUBKTNV-0" />
        <mxCell id="WIyWlLk6GJQsqaUBKTNV-1" parent="WIyWlLk6GJQsqaUBKTNV-0" />
        <mxCell id="Y1EA0GV2m2SHy5Vy6ebx-0" value="&lt;font style=&quot;font-size: 24px&quot;&gt;1. Process incoming traffic&amp;nbsp;&lt;/font&gt;" style="text;html=1;strokeColor=none;fillColor=none;align=left;verticalAlign=middle;whiteSpace=wrap;rounded=0;" vertex="1" parent="WIyWlLk6GJQsqaUBKTNV-1">
          <mxGeometry x="-800" width="390" height="60" as="geometry" />
        </mxCell>
        <mxCell id="Y1EA0GV2m2SHy5Vy6ebx-3" value="5.1 Ingestion of data from another data warehousing&lt;br&gt;5.2 Filebased (csv) data ingestion&lt;br&gt;5.3 Streaming data" style="text;html=1;align=left;verticalAlign=middle;resizable=0;points=[];autosize=1;strokeColor=none;" vertex="1" parent="WIyWlLk6GJQsqaUBKTNV-1">
          <mxGeometry x="-780" y="280" width="300" height="50" as="geometry" />
        </mxCell>
        <mxCell id="Y1EA0GV2m2SHy5Vy6ebx-4" value="4 Real time dashboard with regular/fake orders" style="text;html=1;align=center;verticalAlign=middle;resizable=0;points=[];autosize=1;strokeColor=none;" vertex="1" parent="WIyWlLk6GJQsqaUBKTNV-1">
          <mxGeometry x="-785" y="160" width="270" height="20" as="geometry" />
        </mxCell>
        <mxCell id="Y1EA0GV2m2SHy5Vy6ebx-5" value="3.1.1 User that will write ML model to detect order anomalies&amp;nbsp;" style="text;html=1;align=center;verticalAlign=middle;resizable=0;points=[];autosize=1;strokeColor=none;" vertex="1" parent="WIyWlLk6GJQsqaUBKTNV-1">
          <mxGeometry x="-490" y="80" width="350" height="20" as="geometry" />
        </mxCell>
        <mxCell id="Y1EA0GV2m2SHy5Vy6ebx-6" value="2.1 Query based historical data extraction" style="text;html=1;align=center;verticalAlign=middle;resizable=0;points=[];autosize=1;strokeColor=none;" vertex="1" parent="WIyWlLk6GJQsqaUBKTNV-1">
          <mxGeometry x="-540" y="50" width="240" height="20" as="geometry" />
        </mxCell>
        <mxCell id="Y1EA0GV2m2SHy5Vy6ebx-9" value="&lt;font style=&quot;font-size: 12px&quot;&gt;3.1Tools to analyse real user generated and fake&amp;nbsp;traffic&lt;/font&gt;" style="text;html=1;align=center;verticalAlign=middle;resizable=0;points=[];autosize=1;strokeColor=none;" vertex="1" parent="WIyWlLk6GJQsqaUBKTNV-1">
          <mxGeometry x="-780" y="120" width="310" height="20" as="geometry" />
        </mxCell>
        <mxCell id="Y1EA0GV2m2SHy5Vy6ebx-10" value="3. Detect order anomalies via ML means" style="text;html=1;strokeColor=none;fillColor=none;align=center;verticalAlign=middle;whiteSpace=wrap;rounded=0;" vertex="1" parent="WIyWlLk6GJQsqaUBKTNV-1">
          <mxGeometry x="-790" y="90" width="260" height="20" as="geometry" />
        </mxCell>
        <mxCell id="Y1EA0GV2m2SHy5Vy6ebx-11" value="2. Store orders in historical order" style="text;html=1;strokeColor=none;fillColor=none;align=center;verticalAlign=middle;whiteSpace=wrap;rounded=0;" vertex="1" parent="WIyWlLk6GJQsqaUBKTNV-1">
          <mxGeometry x="-810" y="60" width="260" height="20" as="geometry" />
        </mxCell>
        <mxCell id="Y1EA0GV2m2SHy5Vy6ebx-63" value="" style="edgeStyle=orthogonalEdgeStyle;rounded=0;orthogonalLoop=1;jettySize=auto;html=1;" edge="1" parent="WIyWlLk6GJQsqaUBKTNV-1" source="Y1EA0GV2m2SHy5Vy6ebx-12" target="Y1EA0GV2m2SHy5Vy6ebx-36">
          <mxGeometry relative="1" as="geometry" />
        </mxCell>
        <mxCell id="Y1EA0GV2m2SHy5Vy6ebx-12" value="4.1 Tools to monitor deployed model output" style="text;html=1;strokeColor=none;fillColor=none;align=center;verticalAlign=middle;whiteSpace=wrap;rounded=0;" vertex="1" parent="WIyWlLk6GJQsqaUBKTNV-1">
          <mxGeometry x="-790" y="190" width="260" height="20" as="geometry" />
        </mxCell>
        <mxCell id="Y1EA0GV2m2SHy5Vy6ebx-13" value="4.2* Rule based alert system for anomalies model runtime" style="text;html=1;strokeColor=none;fillColor=none;align=center;verticalAlign=middle;whiteSpace=wrap;rounded=0;" vertex="1" parent="WIyWlLk6GJQsqaUBKTNV-1">
          <mxGeometry x="-830" y="220" width="320" height="20" as="geometry" />
        </mxCell>
        <mxCell id="Y1EA0GV2m2SHy5Vy6ebx-14" value="5. Ingest data from multiple sources" style="text;html=1;align=center;verticalAlign=middle;resizable=0;points=[];autosize=1;strokeColor=none;" vertex="1" parent="WIyWlLk6GJQsqaUBKTNV-1">
          <mxGeometry x="-785" y="250" width="210" height="20" as="geometry" />
        </mxCell>
        <mxCell id="Y1EA0GV2m2SHy5Vy6ebx-15" value="0. &amp;nbsp;Scoop/Spark/Hive extract data from Source&lt;br&gt;1. validate data first and write to raw&lt;br&gt;2. curate data from raw to curated&amp;nbsp;" style="text;html=1;align=left;verticalAlign=middle;resizable=0;points=[];autosize=1;strokeColor=none;" vertex="1" parent="WIyWlLk6GJQsqaUBKTNV-1">
          <mxGeometry x="-780" y="330" width="270" height="50" as="geometry" />
        </mxCell>
        <mxCell id="Y1EA0GV2m2SHy5Vy6ebx-18" value="RDBMS Storage" style="rounded=1;whiteSpace=wrap;html=1;" vertex="1" parent="WIyWlLk6GJQsqaUBKTNV-1">
          <mxGeometry x="-370" y="170" width="120" height="60" as="geometry" />
        </mxCell>
        <mxCell id="Y1EA0GV2m2SHy5Vy6ebx-23" style="edgeStyle=orthogonalEdgeStyle;rounded=0;orthogonalLoop=1;jettySize=auto;html=1;entryX=0.5;entryY=0;entryDx=0;entryDy=0;" edge="1" parent="WIyWlLk6GJQsqaUBKTNV-1" source="Y1EA0GV2m2SHy5Vy6ebx-19" target="Y1EA0GV2m2SHy5Vy6ebx-21">
          <mxGeometry relative="1" as="geometry" />
        </mxCell>
        <mxCell id="Y1EA0GV2m2SHy5Vy6ebx-19" value="Spark/Scoop&lt;br&gt;validate data" style="shape=parallelogram;perimeter=parallelogramPerimeter;whiteSpace=wrap;html=1;fixedSize=1;" vertex="1" parent="WIyWlLk6GJQsqaUBKTNV-1">
          <mxGeometry x="-370" y="260" width="120" height="60" as="geometry" />
        </mxCell>
        <mxCell id="Y1EA0GV2m2SHy5Vy6ebx-20" value="" style="endArrow=classic;html=1;exitX=0.5;exitY=1;exitDx=0;exitDy=0;entryX=0.5;entryY=0;entryDx=0;entryDy=0;" edge="1" parent="WIyWlLk6GJQsqaUBKTNV-1" source="Y1EA0GV2m2SHy5Vy6ebx-18" target="Y1EA0GV2m2SHy5Vy6ebx-19">
          <mxGeometry width="50" height="50" relative="1" as="geometry">
            <mxPoint x="-570" y="290" as="sourcePoint" />
            <mxPoint x="-520" y="240" as="targetPoint" />
          </mxGeometry>
        </mxCell>
        <mxCell id="Y1EA0GV2m2SHy5Vy6ebx-25" style="edgeStyle=orthogonalEdgeStyle;rounded=0;orthogonalLoop=1;jettySize=auto;html=1;entryX=0.5;entryY=0;entryDx=0;entryDy=0;" edge="1" parent="WIyWlLk6GJQsqaUBKTNV-1" source="Y1EA0GV2m2SHy5Vy6ebx-21" target="Y1EA0GV2m2SHy5Vy6ebx-24">
          <mxGeometry relative="1" as="geometry" />
        </mxCell>
        <mxCell id="Y1EA0GV2m2SHy5Vy6ebx-21" value="Raw DataLake Zone" style="rounded=1;whiteSpace=wrap;html=1;" vertex="1" parent="WIyWlLk6GJQsqaUBKTNV-1">
          <mxGeometry x="-370" y="360" width="120" height="60" as="geometry" />
        </mxCell>
        <mxCell id="Y1EA0GV2m2SHy5Vy6ebx-27" style="edgeStyle=orthogonalEdgeStyle;rounded=0;orthogonalLoop=1;jettySize=auto;html=1;entryX=0.5;entryY=0;entryDx=0;entryDy=0;" edge="1" parent="WIyWlLk6GJQsqaUBKTNV-1" source="Y1EA0GV2m2SHy5Vy6ebx-24" target="Y1EA0GV2m2SHy5Vy6ebx-26">
          <mxGeometry relative="1" as="geometry" />
        </mxCell>
        <mxCell id="Y1EA0GV2m2SHy5Vy6ebx-59" style="edgeStyle=orthogonalEdgeStyle;rounded=0;orthogonalLoop=1;jettySize=auto;html=1;entryX=1;entryY=0.5;entryDx=0;entryDy=0;entryPerimeter=0;" edge="1" parent="WIyWlLk6GJQsqaUBKTNV-1" source="Y1EA0GV2m2SHy5Vy6ebx-24" target="Y1EA0GV2m2SHy5Vy6ebx-58">
          <mxGeometry relative="1" as="geometry" />
        </mxCell>
        <mxCell id="Y1EA0GV2m2SHy5Vy6ebx-24" value="Spark&lt;br&gt;curate data" style="shape=parallelogram;perimeter=parallelogramPerimeter;whiteSpace=wrap;html=1;fixedSize=1;" vertex="1" parent="WIyWlLk6GJQsqaUBKTNV-1">
          <mxGeometry x="-370" y="450" width="120" height="60" as="geometry" />
        </mxCell>
        <mxCell id="Y1EA0GV2m2SHy5Vy6ebx-62" style="edgeStyle=orthogonalEdgeStyle;rounded=0;orthogonalLoop=1;jettySize=auto;html=1;entryX=0.775;entryY=0.975;entryDx=0;entryDy=0;entryPerimeter=0;" edge="1" parent="WIyWlLk6GJQsqaUBKTNV-1" source="Y1EA0GV2m2SHy5Vy6ebx-26" target="Y1EA0GV2m2SHy5Vy6ebx-58">
          <mxGeometry relative="1" as="geometry" />
        </mxCell>
        <mxCell id="Y1EA0GV2m2SHy5Vy6ebx-26" value="Curated DataLake Zone + Hive + External" style="rounded=1;whiteSpace=wrap;html=1;" vertex="1" parent="WIyWlLk6GJQsqaUBKTNV-1">
          <mxGeometry x="-370" y="555" width="120" height="60" as="geometry" />
        </mxCell>
        <mxCell id="Y1EA0GV2m2SHy5Vy6ebx-31" style="edgeStyle=orthogonalEdgeStyle;rounded=0;orthogonalLoop=1;jettySize=auto;html=1;entryX=0.5;entryY=0;entryDx=0;entryDy=0;" edge="1" parent="WIyWlLk6GJQsqaUBKTNV-1" source="Y1EA0GV2m2SHy5Vy6ebx-28" target="Y1EA0GV2m2SHy5Vy6ebx-30">
          <mxGeometry relative="1" as="geometry" />
        </mxCell>
        <mxCell id="Y1EA0GV2m2SHy5Vy6ebx-28" value="File Storage" style="rounded=1;whiteSpace=wrap;html=1;" vertex="1" parent="WIyWlLk6GJQsqaUBKTNV-1">
          <mxGeometry x="-240" y="170" width="120" height="60" as="geometry" />
        </mxCell>
        <mxCell id="Y1EA0GV2m2SHy5Vy6ebx-33" style="edgeStyle=orthogonalEdgeStyle;rounded=0;orthogonalLoop=1;jettySize=auto;html=1;" edge="1" parent="WIyWlLk6GJQsqaUBKTNV-1" source="Y1EA0GV2m2SHy5Vy6ebx-30" target="Y1EA0GV2m2SHy5Vy6ebx-19">
          <mxGeometry relative="1" as="geometry" />
        </mxCell>
        <mxCell id="Y1EA0GV2m2SHy5Vy6ebx-30" value="Airflow + file trigger" style="shape=parallelogram;perimeter=parallelogramPerimeter;whiteSpace=wrap;html=1;fixedSize=1;" vertex="1" parent="WIyWlLk6GJQsqaUBKTNV-1">
          <mxGeometry x="-240" y="260" width="120" height="60" as="geometry" />
        </mxCell>
        <mxCell id="Y1EA0GV2m2SHy5Vy6ebx-34" value="Development&lt;br&gt;Dask/Apache Beam/ Spark + Scikit Learn" style="shape=parallelogram;perimeter=parallelogramPerimeter;whiteSpace=wrap;html=1;fixedSize=1;" vertex="1" parent="WIyWlLk6GJQsqaUBKTNV-1">
          <mxGeometry x="-581" y="450" width="120" height="60" as="geometry" />
        </mxCell>
        <mxCell id="Y1EA0GV2m2SHy5Vy6ebx-37" style="edgeStyle=orthogonalEdgeStyle;rounded=0;orthogonalLoop=1;jettySize=auto;html=1;exitX=0.054;exitY=1.008;exitDx=0;exitDy=0;entryX=0.5;entryY=0;entryDx=0;entryDy=0;exitPerimeter=0;" edge="1" parent="WIyWlLk6GJQsqaUBKTNV-1" source="Y1EA0GV2m2SHy5Vy6ebx-36" target="Y1EA0GV2m2SHy5Vy6ebx-34">
          <mxGeometry relative="1" as="geometry" />
        </mxCell>
        <mxCell id="Y1EA0GV2m2SHy5Vy6ebx-39" style="edgeStyle=orthogonalEdgeStyle;rounded=0;orthogonalLoop=1;jettySize=auto;html=1;entryX=0.392;entryY=0;entryDx=0;entryDy=0;entryPerimeter=0;exitX=0.471;exitY=1;exitDx=0;exitDy=0;exitPerimeter=0;" edge="1" parent="WIyWlLk6GJQsqaUBKTNV-1" source="Y1EA0GV2m2SHy5Vy6ebx-36" target="Y1EA0GV2m2SHy5Vy6ebx-38">
          <mxGeometry relative="1" as="geometry" />
        </mxCell>
        <mxCell id="Y1EA0GV2m2SHy5Vy6ebx-48" style="edgeStyle=orthogonalEdgeStyle;rounded=0;orthogonalLoop=1;jettySize=auto;html=1;entryX=1;entryY=0;entryDx=0;entryDy=0;" edge="1" parent="WIyWlLk6GJQsqaUBKTNV-1" source="Y1EA0GV2m2SHy5Vy6ebx-36" target="Y1EA0GV2m2SHy5Vy6ebx-47">
          <mxGeometry relative="1" as="geometry" />
        </mxCell>
        <mxCell id="Y1EA0GV2m2SHy5Vy6ebx-36" value="Streaming Data Source" style="rounded=1;whiteSpace=wrap;html=1;" vertex="1" parent="WIyWlLk6GJQsqaUBKTNV-1">
          <mxGeometry x="-500" y="170" width="120" height="60" as="geometry" />
        </mxCell>
        <mxCell id="Y1EA0GV2m2SHy5Vy6ebx-40" style="edgeStyle=orthogonalEdgeStyle;rounded=0;orthogonalLoop=1;jettySize=auto;html=1;entryX=0.367;entryY=0;entryDx=0;entryDy=0;entryPerimeter=0;" edge="1" parent="WIyWlLk6GJQsqaUBKTNV-1" source="Y1EA0GV2m2SHy5Vy6ebx-38" target="Y1EA0GV2m2SHy5Vy6ebx-19">
          <mxGeometry relative="1" as="geometry" />
        </mxCell>
        <mxCell id="Y1EA0GV2m2SHy5Vy6ebx-38" value="Batch Aggregator&lt;br&gt;n=1000 | t=5m" style="shape=parallelogram;perimeter=parallelogramPerimeter;whiteSpace=wrap;html=1;fixedSize=1;" vertex="1" parent="WIyWlLk6GJQsqaUBKTNV-1">
          <mxGeometry x="-490" y="260" width="120" height="60" as="geometry" />
        </mxCell>
        <mxCell id="Y1EA0GV2m2SHy5Vy6ebx-45" style="edgeStyle=orthogonalEdgeStyle;rounded=0;orthogonalLoop=1;jettySize=auto;html=1;entryX=0.842;entryY=1;entryDx=0;entryDy=0;entryPerimeter=0;" edge="1" parent="WIyWlLk6GJQsqaUBKTNV-1" source="Y1EA0GV2m2SHy5Vy6ebx-41" target="Y1EA0GV2m2SHy5Vy6ebx-34">
          <mxGeometry relative="1" as="geometry" />
        </mxCell>
        <mxCell id="Y1EA0GV2m2SHy5Vy6ebx-49" style="edgeStyle=orthogonalEdgeStyle;rounded=0;orthogonalLoop=1;jettySize=auto;html=1;entryX=0.75;entryY=1;entryDx=0;entryDy=0;" edge="1" parent="WIyWlLk6GJQsqaUBKTNV-1" source="Y1EA0GV2m2SHy5Vy6ebx-41" target="Y1EA0GV2m2SHy5Vy6ebx-47">
          <mxGeometry relative="1" as="geometry" />
        </mxCell>
        <mxCell id="Y1EA0GV2m2SHy5Vy6ebx-41" value="Presto/Query Engine" style="shape=parallelogram;perimeter=parallelogramPerimeter;whiteSpace=wrap;html=1;fixedSize=1;" vertex="1" parent="WIyWlLk6GJQsqaUBKTNV-1">
          <mxGeometry x="-530" y="555" width="120" height="60" as="geometry" />
        </mxCell>
        <mxCell id="Y1EA0GV2m2SHy5Vy6ebx-51" style="edgeStyle=orthogonalEdgeStyle;rounded=0;orthogonalLoop=1;jettySize=auto;html=1;entryX=0.5;entryY=0;entryDx=0;entryDy=0;" edge="1" parent="WIyWlLk6GJQsqaUBKTNV-1" source="Y1EA0GV2m2SHy5Vy6ebx-47" target="Y1EA0GV2m2SHy5Vy6ebx-50">
          <mxGeometry relative="1" as="geometry" />
        </mxCell>
        <mxCell id="Y1EA0GV2m2SHy5Vy6ebx-47" value="Production&lt;br&gt;Dask/Apache Beam/ Spark + Scikit Learn" style="shape=parallelogram;perimeter=parallelogramPerimeter;whiteSpace=wrap;html=1;fixedSize=1;" vertex="1" parent="WIyWlLk6GJQsqaUBKTNV-1">
          <mxGeometry x="-720" y="450" width="120" height="60" as="geometry" />
        </mxCell>
        <mxCell id="Y1EA0GV2m2SHy5Vy6ebx-50" value="MatPlot +&amp;nbsp;&lt;br&gt;Dashboard" style="rounded=0;whiteSpace=wrap;html=1;" vertex="1" parent="WIyWlLk6GJQsqaUBKTNV-1">
          <mxGeometry x="-780" y="555" width="120" height="60" as="geometry" />
        </mxCell>
        <mxCell id="Y1EA0GV2m2SHy5Vy6ebx-52" value="Label" style="endArrow=classic;html=1;" edge="1" parent="WIyWlLk6GJQsqaUBKTNV-1" target="Y1EA0GV2m2SHy5Vy6ebx-47">
          <mxGeometry relative="1" as="geometry">
            <mxPoint x="-830" y="430" as="sourcePoint" />
            <mxPoint x="-670" y="430" as="targetPoint" />
          </mxGeometry>
        </mxCell>
        <mxCell id="Y1EA0GV2m2SHy5Vy6ebx-53" value="RESTFull Endpoint" style="edgeLabel;resizable=0;html=1;align=center;verticalAlign=middle;" connectable="0" vertex="1" parent="Y1EA0GV2m2SHy5Vy6ebx-52">
          <mxGeometry relative="1" as="geometry">
            <mxPoint x="-12" y="-8" as="offset" />
          </mxGeometry>
        </mxCell>
        <mxCell id="Y1EA0GV2m2SHy5Vy6ebx-54" value="E-comm" style="edgeLabel;resizable=0;html=1;align=left;verticalAlign=bottom;" connectable="0" vertex="1" parent="Y1EA0GV2m2SHy5Vy6ebx-52">
          <mxGeometry x="-1" relative="1" as="geometry" />
        </mxCell>
        <mxCell id="Y1EA0GV2m2SHy5Vy6ebx-55" value="Validated Order" style="edgeLabel;resizable=0;html=1;align=right;verticalAlign=bottom;" connectable="0" vertex="1" parent="Y1EA0GV2m2SHy5Vy6ebx-52">
          <mxGeometry x="1" relative="1" as="geometry" />
        </mxCell>
        <mxCell id="Y1EA0GV2m2SHy5Vy6ebx-56" value="Apache Beam/Nats streaming + Streaming Data Source + Apache Flink" style="text;html=1;align=center;verticalAlign=middle;resizable=0;points=[];autosize=1;strokeColor=none;" vertex="1" parent="WIyWlLk6GJQsqaUBKTNV-1">
          <mxGeometry x="-813" y="390" width="400" height="20" as="geometry" />
        </mxCell>
        <mxCell id="Y1EA0GV2m2SHy5Vy6ebx-61" style="edgeStyle=orthogonalEdgeStyle;rounded=0;orthogonalLoop=1;jettySize=auto;html=1;entryX=0.75;entryY=0;entryDx=0;entryDy=0;" edge="1" parent="WIyWlLk6GJQsqaUBKTNV-1" source="Y1EA0GV2m2SHy5Vy6ebx-58" target="Y1EA0GV2m2SHy5Vy6ebx-41">
          <mxGeometry relative="1" as="geometry" />
        </mxCell>
        <mxCell id="Y1EA0GV2m2SHy5Vy6ebx-58" value="Denodo" style="shape=cylinder3;whiteSpace=wrap;html=1;boundedLbl=1;backgroundOutline=1;size=15;" vertex="1" parent="WIyWlLk6GJQsqaUBKTNV-1">
          <mxGeometry x="-440" y="440" width="60" height="80" as="geometry" />
        </mxCell>
      </root>
    </mxGraphModel>
  </diagram>
</mxfile>
